<?xml version="1.0" encoding="UTF-8"?>
<svg width="512" height="512" viewBox="0 0 512 512" xmlns="http://www.w3.org/2000/svg">
    <defs>
        <linearGradient id="grad" x1="0%" y1="0%" x2="100%" y2="100%">
            <stop offset="0%" style="stop-color:#4a90e2;stop-opacity:1" />
            <stop offset="100%" style="stop-color:#357abd;stop-opacity:1" />
        </linearGradient>
    </defs>
    <rect x="0" y="0" width="512" height="512" rx="64" fill="url(#grad)"/>
    <g transform="translate(96,96) scale(0.625)">
        <path d="M400 32H48C21.5 32 0 53.5 0 80v352c0 26.5 21.5 48 48 48h352c26.5 0 48-21.5 48-48V80c0-26.5-21.5-48-48-48zm-6 400H54c-3.3 0-6-2.7-6-6V86c0-3.3 2.7-6 6-6h340c3.3 0 6 2.7 6 6v340c0 3.3-2.7 6-6 6z" fill="white"/>
        <path d="M360 160H80c-8.8 0-16 7.2-16 16v160c0 8.8 7.2 16 16 16h280c8.8 0 16-7.2 16-16V176c0-8.8-7.2-16-16-16zm-24 144H104v-32h232v32zm0-64H104v-32h232v32z" fill="white"/>
    </g>
</svg> 